<?xml version="1.0" encoding="UTF-8" standalone="no"?>
<!-- Created with Inkscape (http://www.inkscape.org/) -->

<svg
   xmlns:dc="http://purl.org/dc/elements/1.1/"
   xmlns:cc="http://creativecommons.org/ns#"
   xmlns:rdf="http://www.w3.org/1999/02/22-rdf-syntax-ns#"
   xmlns:svg="http://www.w3.org/2000/svg"
   xmlns="http://www.w3.org/2000/svg"
   xmlns:sodipodi="http://sodipodi.sourceforge.net/DTD/sodipodi-0.dtd"
   xmlns:inkscape="http://www.inkscape.org/namespaces/inkscape"
   width="95.534477mm"
   height="67.530571mm"
   viewBox="0 0 338.50799 239.28155"
   id="svg3979"
   version="1.1"
   inkscape:version="0.91 r13725"
   sodipodi:docname="entityrelationgraph.svg">
  <defs
     id="defs3981">
    <clipPath
       clipPathUnits="userSpaceOnUse"
       id="clipPath46">
      <path
         d="M 0,0 618,0 618,417 0,417 0,0 Z"
         id="path48"
         inkscape:connector-curvature="0" />
    </clipPath>
  </defs>
  <sodipodi:namedview
     id="base"
     pagecolor="#ffffff"
     bordercolor="#666666"
     borderopacity="1.0"
     inkscape:pageopacity="0.0"
     inkscape:pageshadow="2"
     inkscape:zoom="2.8"
     inkscape:cx="176.50155"
     inkscape:cy="121.68677"
     inkscape:document-units="px"
     inkscape:current-layer="layer1"
     showgrid="false"
     fit-margin-top="5"
     fit-margin-left="5"
     fit-margin-right="5"
     fit-margin-bottom="5"
     inkscape:window-width="1920"
     inkscape:window-height="1016"
     inkscape:window-x="0"
     inkscape:window-y="0"
     inkscape:window-maximized="1" />
  <metadata
     id="metadata3984">
    <rdf:RDF>
      <cc:Work
         rdf:about="">
        <dc:format>image/svg+xml</dc:format>
        <dc:type
           rdf:resource="http://purl.org/dc/dcmitype/StillImage" />
        <dc:title></dc:title>
      </cc:Work>
    </rdf:RDF>
  </metadata>
  <g
     inkscape:label="Layer 1"
     inkscape:groupmode="layer"
     id="layer1"
     transform="translate(174.96829,21.564286)">
    <g
       transform="matrix(0.4904125,0,0,-0.4904125,-157.25175,200.44976)"
       id="g40">
      <g
         id="g42">
        <g
           id="g44"
           clip-path="url(#clipPath46)">
          <g
             id="g50"
             transform="scale(0.1,0.1)">
            <path
               d="m 2452.46,320.426 1520,662.89"
               style="fill:none;stroke:#000000;stroke-width:8;stroke-linecap:butt;stroke-linejoin:miter;stroke-miterlimit:4;stroke-dasharray:none;stroke-opacity:1"
               id="path52"
               inkscape:connector-curvature="0" />
            <path
               d="m 3899.1,951.328 -16.52,-42.109 89.88,74.101 -115.47,-15.468"
               style="fill:#000000;fill-opacity:1;fill-rule:evenodd;stroke:none"
               id="path54"
               inkscape:connector-curvature="0" />
            <path
               d="m 3899.09,951.328 -16.51,-42.109 89.88,74.101 -115.47,-15.468 42.1,-16.524 z"
               style="fill:none;stroke:#000000;stroke-width:8;stroke-linecap:butt;stroke-linejoin:miter;stroke-miterlimit:4;stroke-dasharray:none;stroke-opacity:1"
               id="path56"
               inkscape:connector-curvature="0" />
            <g
               id="g58"
               transform="scale(10,10)">
              <text
                 transform="matrix(0.927349,0.374196,0.374196,-0.927349,285.183,56.0098)"
                 style="font-variant:normal;font-weight:normal;font-size:11.19999313px;font-family:'Droid Sans Fallback';-inkscape-font-specification:DroidSans;writing-mode:lr-tb;fill:#000000;fill-opacity:1;fill-rule:nonzero;stroke:none"
                 id="text60">
                <tspan
                   x="0 6.5631962 11.031994 17.023991 22.075188 24.975985 31.539181 37.531178 44.127975 47.92477 50.836769 57.333008"
                   y="0"
                   sodipodi:role="line"
                   id="tspan62">president of</tspan>
              </text>
            </g>
            <path
               d="m 4215,1011.8 c 0,-63.089 -51.17,-114.261 -114.3,-114.261 -63.12,0 -114.25,51.172 -114.25,114.261 0,63.12 51.13,114.29 114.25,114.29 63.13,0 114.3,-51.17 114.3,-114.29"
               style="fill:#800000;fill-opacity:1;fill-rule:nonzero;stroke:none"
               id="path64"
               inkscape:connector-curvature="0" />
            <path
               d="m 4215,1011.8 c 0,-63.093 -51.17,-114.261 -114.3,-114.261 -63.12,0 -114.25,51.168 -114.25,114.261 0,63.12 51.13,114.29 114.25,114.29 63.13,0 114.3,-51.17 114.3,-114.29 z"
               style="fill:none;stroke:#ffffff;stroke-width:4;stroke-linecap:butt;stroke-linejoin:miter;stroke-miterlimit:1;stroke-dasharray:none;stroke-opacity:1"
               id="path66"
               inkscape:connector-curvature="0" />
            <g
               id="g68"
               transform="scale(10,10)">
              <text
                 transform="matrix(1,0,0,-1,392.216,73.7527)"
                 style="font-variant:normal;font-weight:normal;font-size:19.20000076px;font-family:'Droid Sans Fallback';-inkscape-font-specification:DroidSans;writing-mode:lr-tb;fill:#800000;fill-opacity:1;fill-rule:nonzero;stroke:none"
                 id="text70">
                <tspan
                   x="0 13.4016 23.3664"
                   y="0"
                   sodipodi:role="line"
                   id="tspan72">USA</tspan>
              </text>
            </g>
            <path
               d="m 2514.73,297.578 c 0,-63.09 -51.18,-114.258 -114.26,-114.258 -63.13,0 -114.3,51.168 -114.3,114.258 0,63.121 51.17,114.293 114.3,114.293 63.08,0 114.26,-51.172 114.26,-114.293"
               style="fill:#104071;fill-opacity:1;fill-rule:nonzero;stroke:none"
               id="path74"
               inkscape:connector-curvature="0" />
            <path
               d="m 2514.73,297.578 c 0,-63.09 -51.18,-114.262 -114.26,-114.262 -63.13,0 -114.3,51.172 -114.3,114.262 0,63.121 51.17,114.301 114.3,114.301 63.08,0 114.26,-51.18 114.26,-114.301 z"
               style="fill:none;stroke:#ffffff;stroke-width:4;stroke-linecap:butt;stroke-linejoin:miter;stroke-miterlimit:1;stroke-dasharray:none;stroke-opacity:1"
               id="path76"
               inkscape:connector-curvature="0" />
            <g
               id="g78"
               transform="scale(10,10)">
              <text
                 transform="matrix(1,0,0,-1,182.388,1.1875)"
                 style="font-variant:normal;font-weight:normal;font-size:19.20000076px;font-family:'Droid Sans Fallback';-inkscape-font-specification:DroidSans;writing-mode:lr-tb;fill:#104071;fill-opacity:1;fill-rule:nonzero;stroke:none"
                 id="text80">
                <tspan
                   x="0 11.9232 22.118401 29.587011 39.782211 48.67181 58.195011 63.187012 77.433411 88.684608 98.879814 116.08302"
                   y="0"
                   sodipodi:role="line"
                   id="tspan82">Barack Obama</tspan>
              </text>
            </g>
            <path
               d="M 2445.35,1690.98 3979.73,1062.07"
               style="fill:none;stroke:#000000;stroke-width:8;stroke-linecap:butt;stroke-linejoin:miter;stroke-miterlimit:4;stroke-dasharray:none;stroke-opacity:1"
               id="path84"
               inkscape:connector-curvature="0" />
            <path
               d="m 3905.7,1092.42 -41.75,-17.5 115.78,-12.85 -91.49,72.07"
               style="fill:#000000;fill-opacity:1;fill-rule:evenodd;stroke:none"
               id="path86"
               inkscape:connector-curvature="0" />
            <path
               d="m 3905.7,1092.42 -41.75,-17.5 115.77,-12.85 -91.48,72.07 17.46,-41.72 z"
               style="fill:none;stroke:#000000;stroke-width:8;stroke-linecap:butt;stroke-linejoin:miter;stroke-miterlimit:4;stroke-dasharray:none;stroke-opacity:1"
               id="path88"
               inkscape:connector-curvature="0" />
            <g
               id="g90"
               transform="scale(10,10)">
              <text
                 transform="matrix(0.932318,-0.361638,-0.361638,-0.932318,288.581,155.957)"
                 style="font-variant:normal;font-weight:normal;font-size:11.19999409px;font-family:'Droid Sans Fallback';-inkscape-font-specification:DroidSans;writing-mode:lr-tb;fill:#000000;fill-opacity:1;fill-rule:nonzero;stroke:none"
                 id="text92">
                <tspan
                   x="0 5.1855969 11.132793 17.69599 20.596788 24.393587 30.374311 33.275108 36.187107 42.649506"
                   y="0"
                   sodipodi:role="line"
                   id="tspan94">capital of</tspan>
              </text>
            </g>
            <path
               d="m 2514.73,1737.54 c 0,-63.13 -51.18,-114.3 -114.26,-114.3 -63.13,0 -114.3,51.17 -114.3,114.3 0,63.12 51.17,114.26 114.3,114.26 63.08,0 114.26,-51.14 114.26,-114.26"
               style="fill:#800000;fill-opacity:1;fill-rule:nonzero;stroke:none"
               id="path96"
               inkscape:connector-curvature="0" />
            <path
               d="m 2514.73,1737.54 c 0,-63.13 -51.18,-114.3 -114.26,-114.3 -63.13,0 -114.3,51.17 -114.3,114.3 0,63.12 51.17,114.26 114.3,114.26 63.08,0 114.26,-51.14 114.26,-114.26 z"
               style="fill:none;stroke:#ffffff;stroke-width:4;stroke-linecap:butt;stroke-linejoin:miter;stroke-miterlimit:1;stroke-dasharray:none;stroke-opacity:1"
               id="path98"
               inkscape:connector-curvature="0" />
            <g
               id="g100"
               transform="scale(10,10)">
              <text
                 transform="matrix(1,0,0,-1,175.418,192.038)"
                 style="font-variant:normal;font-weight:normal;font-size:19.20000076px;font-family:'Droid Sans Fallback';-inkscape-font-specification:DroidSans;writing-mode:lr-tb;fill:#800000;fill-opacity:1;fill-rule:nonzero;stroke:none"
                 id="text102">
                <tspan
                   x="0 16.607956 26.803156 35.462357 46.771156 51.801376 63.110176 73.055779 79.564575 90.642975 102.0092 107.0012 120.134"
                   y="0"
                   sodipodi:role="line"
                   id="tspan104">Washington DC</tspan>
              </text>
            </g>
            <path
               d="M 786.449,955.156 2324.38,335.039"
               style="fill:none;stroke:#000000;stroke-width:8;stroke-linecap:butt;stroke-linejoin:miter;stroke-miterlimit:4;stroke-dasharray:none;stroke-opacity:1"
               id="path106"
               inkscape:connector-curvature="0" />
            <path
               d="m 860.621,925.23 41.649,17.739 -115.821,12.179 91.91,-71.558"
               style="fill:#000000;fill-opacity:1;fill-rule:evenodd;stroke:none"
               id="path108"
               inkscape:connector-curvature="0" />
            <path
               d="m 860.625,925.234 41.645,17.739 -115.821,12.183 91.91,-71.566 -17.734,41.644 z"
               style="fill:none;stroke:#000000;stroke-width:8;stroke-linecap:butt;stroke-linejoin:miter;stroke-miterlimit:4;stroke-dasharray:none;stroke-opacity:1"
               id="path110"
               inkscape:connector-curvature="0" />
            <path
               d="m 2250.16,364.961 -41.64,-17.742 115.86,-12.18 -91.92,71.563"
               style="fill:#000000;fill-opacity:1;fill-rule:evenodd;stroke:none"
               id="path112"
               inkscape:connector-curvature="0" />
            <path
               d="m 2250.16,364.961 -41.65,-17.738 115.87,-12.188 -91.92,71.567 17.7,-41.641 z"
               style="fill:none;stroke:#000000;stroke-width:8;stroke-linecap:butt;stroke-linejoin:miter;stroke-miterlimit:4;stroke-dasharray:none;stroke-opacity:1"
               id="path114"
               inkscape:connector-curvature="0" />
            <g
               id="g116"
               transform="scale(10,10)">
              <text
                 transform="matrix(0.916732,-0.399503,-0.399503,-0.916732,138.125,75.8105)"
                 style="font-variant:normal;font-weight:normal;font-size:11.20000076px;font-family:'Droid Sans Fallback';-inkscape-font-specification:DroidSans;writing-mode:lr-tb;fill:#000000;fill-opacity:1;fill-rule:nonzero;stroke:none"
                 id="text118">
                <tspan
                   x="0 10.035201 15.982402 20.451202 24.920002 27.820803 33.812805"
                   y="0"
                   sodipodi:role="line"
                   id="tspan120">married</tspan>
              </text>
            </g>
            <path
               d="m 798.199,1010.82 c 0,-63.129 -51.168,-114.3 -114.289,-114.3 -63.129,0 -114.301,51.171 -114.301,114.3 0,63.12 51.172,114.3 114.301,114.3 63.121,0 114.289,-51.18 114.289,-114.3"
               style="fill:#104071;fill-opacity:1;fill-rule:nonzero;stroke:none"
               id="path122"
               inkscape:connector-curvature="0" />
            <path
               d="m 798.199,1010.82 c 0,-63.121 -51.168,-114.3 -114.289,-114.3 -63.129,0 -114.301,51.179 -114.301,114.3 0,63.13 51.172,114.3 114.301,114.3 63.121,0 114.289,-51.17 114.289,-114.3 z"
               style="fill:none;stroke:#ffffff;stroke-width:4;stroke-linecap:butt;stroke-linejoin:miter;stroke-miterlimit:1;stroke-dasharray:none;stroke-opacity:1"
               id="path124"
               inkscape:connector-curvature="0" />
            <g
               id="g126"
               transform="scale(10,10)">
              <text
                 transform="matrix(1,0,0,-1,0.683203,117.081)"
                 style="font-variant:normal;font-weight:normal;font-size:19.20000076px;font-family:'Droid Sans Fallback';-inkscape-font-specification:DroidSans;writing-mode:lr-tb;fill:#104071;fill-opacity:1;fill-rule:nonzero;stroke:none"
                 id="text128">
                <tspan
                   x="0 16.704 21.6768 30.566401 41.932617 52.20462 57.177418 62.150219 72.422218 77.414215 91.660622 102.91182 113.10702 130.36765"
                   y="0"
                   sodipodi:role="line"
                   id="tspan130">Michelle Obama</tspan>
              </text>
            </g>
            <path
               d="m 4207.07,1061.48 1520,662.86"
               style="fill:none;stroke:#000000;stroke-width:8;stroke-linecap:butt;stroke-linejoin:miter;stroke-miterlimit:4;stroke-dasharray:none;stroke-opacity:1"
               id="path132"
               inkscape:connector-curvature="0" />
            <path
               d="m 4280.43,1093.47 16.52,42.11 -89.88,-74.1 115.47,15.43"
               style="fill:#000000;fill-opacity:1;fill-rule:evenodd;stroke:none"
               id="path134"
               inkscape:connector-curvature="0" />
            <path
               d="m 4280.42,1093.47 16.54,42.11 -89.9,-74.1 115.48,15.43 -42.12,16.56 z"
               style="fill:none;stroke:#000000;stroke-width:8;stroke-linecap:butt;stroke-linejoin:miter;stroke-miterlimit:4;stroke-dasharray:none;stroke-opacity:1"
               id="path136"
               inkscape:connector-curvature="0" />
            <path
               d="m 5653.75,1692.34 -16.52,-42.11 89.84,74.1 -115.43,-15.43"
               style="fill:#000000;fill-opacity:1;fill-rule:evenodd;stroke:none"
               id="path138"
               inkscape:connector-curvature="0" />
            <path
               d="m 5653.75,1692.34 -16.53,-42.11 89.85,74.1 -115.43,-15.43 42.11,-16.56 z"
               style="fill:none;stroke:#000000;stroke-width:8;stroke-linecap:butt;stroke-linejoin:miter;stroke-miterlimit:4;stroke-dasharray:none;stroke-opacity:1"
               id="path140"
               inkscape:connector-curvature="0" />
            <g
               id="g142"
               transform="scale(10,10)">
              <text
                 transform="matrix(0.913247,0.407406,0.407406,-0.913247,440.954,119.249)"
                 style="font-variant:normal;font-weight:normal;font-size:11.19999886px;font-family:'Droid Sans Fallback';-inkscape-font-specification:DroidSans;writing-mode:lr-tb;fill:#000000;fill-opacity:1;fill-rule:nonzero;stroke:none"
                 id="text144">
                <tspan
                   x="0 3.6847994 8.1535988 14.145598 20.137598 23.049597 26.846395 31.214424 37.161625 43.724823 49.716824 52.628822 58.576019 64.377617 68.84642 74.838417 80.830421 90.865616 96.857613 103.45441"
                   y="0"
                   sodipodi:role="line"
                   id="tspan146">free trade agreement</tspan>
              </text>
            </g>
            <path
               d="m 5967.58,1752.85 c 0,-63.13 -51.17,-114.3 -114.3,-114.3 -63.12,0 -114.3,51.17 -114.3,114.3 0,63.12 51.18,114.3 114.3,114.3 63.13,0 114.3,-51.18 114.3,-114.3"
               style="fill:#800000;fill-opacity:1;fill-rule:nonzero;stroke:none"
               id="path148"
               inkscape:connector-curvature="0" />
            <path
               d="m 5967.58,1752.85 c 0,-63.12 -51.17,-114.29 -114.3,-114.29 -63.12,0 -114.3,51.17 -114.3,114.29 0,63.13 51.18,114.3 114.3,114.3 63.13,0 114.3,-51.17 114.3,-114.3 z"
               style="fill:none;stroke:#ffffff;stroke-width:4;stroke-linecap:butt;stroke-linejoin:miter;stroke-miterlimit:1;stroke-dasharray:none;stroke-opacity:1"
               id="path150"
               inkscape:connector-curvature="0" />
            <g
               id="g152"
               transform="scale(10,10)">
              <text
                 transform="matrix(1,0,0,-1,551.68,147.856)"
                 style="font-variant:normal;font-weight:normal;font-size:19.20000076px;font-family:'Droid Sans Fallback';-inkscape-font-specification:DroidSans;writing-mode:lr-tb;fill:#800000;fill-opacity:1;fill-rule:nonzero;stroke:none"
                 id="text154">
                <tspan
                   x="0 11.5776 21.7728 33.0816 43.276798 54.528"
                   y="0"
                   sodipodi:role="line"
                   id="tspan156">Canada</tspan>
              </text>
            </g>
            <path
               d="m 4205.94,950.586 1536.4,-623.91"
               style="fill:none;stroke:#000000;stroke-width:8;stroke-linecap:butt;stroke-linejoin:miter;stroke-miterlimit:4;stroke-dasharray:none;stroke-opacity:1"
               id="path158"
               inkscape:connector-curvature="0" />
            <path
               d="m 4280.08,920.512 41.68,17.609 -115.82,12.457 91.76,-71.75"
               style="fill:#000000;fill-opacity:1;fill-rule:evenodd;stroke:none"
               id="path160"
               inkscape:connector-curvature="0" />
            <path
               d="m 4280.08,920.508 41.68,17.613 -115.82,12.461 91.76,-71.754 -17.62,41.68 z"
               style="fill:none;stroke:#000000;stroke-width:8;stroke-linecap:butt;stroke-linejoin:miter;stroke-miterlimit:4;stroke-dasharray:none;stroke-opacity:1"
               id="path162"
               inkscape:connector-curvature="0" />
            <path
               d="m 5668.24,356.801 -41.72,-17.621 115.82,-12.5 -91.72,71.789"
               style="fill:#000000;fill-opacity:1;fill-rule:evenodd;stroke:none"
               id="path164"
               inkscape:connector-curvature="0" />
            <path
               d="m 5668.25,356.797 -41.72,-17.621 115.82,-12.496 -91.73,71.8 17.63,-41.683 z"
               style="fill:none;stroke:#000000;stroke-width:8;stroke-linecap:butt;stroke-linejoin:miter;stroke-miterlimit:4;stroke-dasharray:none;stroke-opacity:1"
               id="path166"
               inkscape:connector-curvature="0" />
            <g
               id="g168"
               transform="scale(10,10)">
              <text
                 transform="matrix(0.929639,-0.368471,-0.368471,-0.929639,442.498,89.7543)"
                 style="font-variant:normal;font-weight:normal;font-size:11.1999979px;font-family:'Droid Sans Fallback';-inkscape-font-specification:DroidSans;writing-mode:lr-tb;fill:#000000;fill-opacity:1;fill-rule:nonzero;stroke:none"
                 id="text170">
                <tspan
                   x="0 3.6847992 8.1535978 14.145597 20.137596 23.049595 26.846394 31.214491 37.16169 43.724888 49.716885 52.628887 58.576084 64.377686 68.846481 74.838478 80.830482 90.865677 96.857674 103.45448"
                   y="0"
                   sodipodi:role="line"
                   id="tspan172">free trade agreement</tspan>
              </text>
            </g>
            <path
               d="m 5967.58,312.852 c 0,-63.133 -51.17,-114.301 -114.3,-114.301 -63.12,0 -114.3,51.168 -114.3,114.301 0,63.117 51.18,114.296 114.3,114.296 63.13,0 114.3,-51.179 114.3,-114.296"
               style="fill:#800000;fill-opacity:1;fill-rule:nonzero;stroke:none"
               id="path174"
               inkscape:connector-curvature="0" />
            <path
               d="m 5967.58,312.848 c 0,-63.121 -51.17,-114.289 -114.3,-114.289 -63.12,0 -114.3,51.168 -114.3,114.289 0,63.129 51.18,114.3 114.3,114.3 63.13,0 114.3,-51.171 114.3,-114.3 z"
               style="fill:none;stroke:#ffffff;stroke-width:4;stroke-linecap:butt;stroke-linejoin:miter;stroke-miterlimit:1;stroke-dasharray:none;stroke-opacity:1"
               id="path176"
               inkscape:connector-curvature="0" />
            <g
               id="g178"
               transform="scale(10,10)">
              <text
                 transform="matrix(1,0,0,-1,557.032,3.85586)"
                 style="font-variant:normal;font-weight:normal;font-size:19.20000076px;font-family:'Droid Sans Fallback';-inkscape-font-specification:DroidSans;writing-mode:lr-tb;fill:#800000;fill-opacity:1;fill-rule:nonzero;stroke:none"
                 id="text180">
                <tspan
                   x="0 16.704 26.976 36.576 41.548801 50.4384"
                   y="0"
                   sodipodi:role="line"
                   id="tspan182">Mexico</tspan>
              </text>
            </g>
            <path
               d="M 4203.16,2433.32 5738.24,1806.21"
               style="fill:none;stroke:#000000;stroke-width:8;stroke-linecap:butt;stroke-linejoin:miter;stroke-miterlimit:4;stroke-dasharray:none;stroke-opacity:1"
               id="path184"
               inkscape:connector-curvature="0" />
            <path
               d="m 5664.18,1836.44 -41.72,-17.5 115.78,-12.73 -91.6,71.95"
               style="fill:#000000;fill-opacity:1;fill-rule:evenodd;stroke:none"
               id="path186"
               inkscape:connector-curvature="0" />
            <path
               d="m 5664.18,1836.44 -41.72,-17.49 115.78,-12.74 -91.6,71.95 17.54,-41.72 z"
               style="fill:none;stroke:#000000;stroke-width:7.99998999;stroke-linecap:butt;stroke-linejoin:miter;stroke-miterlimit:4;stroke-dasharray:none;stroke-opacity:1"
               id="path188"
               inkscape:connector-curvature="0" />
            <g
               id="g190"
               transform="scale(10,10)">
              <text
                 transform="matrix(0.929962,-0.367655,-0.367655,-0.929962,453.582,232.972)"
                 style="font-variant:normal;font-weight:normal;font-size:11.19999695px;font-family:'Droid Sans Fallback';-inkscape-font-specification:DroidSans;writing-mode:lr-tb;fill:#000000;fill-opacity:1;fill-rule:nonzero;stroke:none"
                 id="text192">
                <tspan
                   x="0 6.5631986 11.031998 13.932796 23.967995 29.959993 32.871994 42.907188 45.807987 52.43858 55.339378 60.390579 64.187378 70.179375 74.648178 77.560173 84.056061"
                   y="0"
                   sodipodi:role="line"
                   id="tspan194">prime minister of</tspan>
              </text>
            </g>
            <path
               d="m 4215,2474.06 c 0,-63.12 -51.17,-114.3 -114.3,-114.3 -63.12,0 -114.25,51.18 -114.25,114.3 0,63.09 51.13,114.26 114.25,114.26 63.13,0 114.3,-51.17 114.3,-114.26"
               style="fill:#104071;fill-opacity:1;fill-rule:nonzero;stroke:none"
               id="path196"
               inkscape:connector-curvature="0" />
            <path
               d="m 4215,2474.06 c 0,-63.12 -51.17,-114.29 -114.3,-114.29 -63.12,0 -114.25,51.17 -114.25,114.29 0,63.09 51.13,114.26 114.25,114.26 63.13,0 114.3,-51.17 114.3,-114.26 z"
               style="fill:none;stroke:#ffffff;stroke-width:4;stroke-linecap:butt;stroke-linejoin:miter;stroke-miterlimit:1;stroke-dasharray:none;stroke-opacity:1"
               id="path198"
               inkscape:connector-curvature="0" />
            <g
               id="g200"
               transform="scale(10,10)">
              <text
                 transform="matrix(1,0,0,-1,343.355,266.833)"
                 style="font-variant:normal;font-weight:normal;font-size:19.20000076px;font-family:'Droid Sans Fallback';-inkscape-font-specification:DroidSans;writing-mode:lr-tb;fill:#104071;fill-opacity:1;fill-rule:nonzero;stroke:none"
                 id="text202">
                <tspan
                   x="0 9.9647999 16.4736 26.7456 37.996799 49.305599 59.577599 70.943825 75.935822 89.39502 99.590225 107.25102 118.50222 128.77422"
                   y="0"
                   sodipodi:role="line"
                   id="tspan204">Stephen Harper</tspan>
              </text>
            </g>
            <path
               d="m 2451.05,3329.38 1520,662.85"
               style="fill:none;stroke:#000000;stroke-width:8;stroke-linecap:butt;stroke-linejoin:miter;stroke-miterlimit:4;stroke-dasharray:none;stroke-opacity:1"
               id="path206"
               inkscape:connector-curvature="0" />
            <path
               d="m 3897.73,3960.23 -16.56,-42.11 89.88,74.1 -115.46,-15.42"
               style="fill:#000000;fill-opacity:1;fill-rule:evenodd;stroke:none"
               id="path208"
               inkscape:connector-curvature="0" />
            <path
               d="m 3897.73,3960.23 -16.56,-42.1 89.88,74.09 -115.46,-15.42 42.14,-16.57 z"
               style="fill:none;stroke:#000000;stroke-width:8;stroke-linecap:butt;stroke-linejoin:miter;stroke-miterlimit:4;stroke-dasharray:none;stroke-opacity:1"
               id="path210"
               inkscape:connector-curvature="0" />
            <g
               id="g212"
               transform="scale(10,10)">
              <text
                 transform="matrix(0.927349,0.374196,0.374196,-0.927349,285.043,356.902)"
                 style="font-variant:normal;font-weight:normal;font-size:11.19999313px;font-family:'Droid Sans Fallback';-inkscape-font-specification:DroidSans;writing-mode:lr-tb;fill:#000000;fill-opacity:1;fill-rule:nonzero;stroke:none"
                 id="text214">
                <tspan
                   x="0 6.5631962 11.031994 17.49439 24.057587 30.654383 35.839977 41.831974 46.300774 49.212772 55.675167"
                   y="0"
                   sodipodi:role="line"
                   id="tspan216">producer of</tspan>
              </text>
            </g>
            <path
               d="m 4213.59,4020.74 c 0,-63.12 -51.17,-114.3 -114.25,-114.3 -63.13,0 -114.3,51.18 -114.3,114.3 0,63.09 51.17,114.26 114.3,114.26 63.08,0 114.25,-51.17 114.25,-114.26"
               style="fill:#800080;fill-opacity:1;fill-rule:nonzero;stroke:none"
               id="path218"
               inkscape:connector-curvature="0" />
            <path
               d="m 4213.59,4020.74 c 0,-63.12 -51.17,-114.29 -114.25,-114.29 -63.13,0 -114.3,51.17 -114.3,114.29 0,63.09 51.17,114.26 114.3,114.26 63.08,0 114.25,-51.17 114.25,-114.26 z"
               style="fill:none;stroke:#ffffff;stroke-width:4;stroke-linecap:butt;stroke-linejoin:miter;stroke-miterlimit:1;stroke-dasharray:none;stroke-opacity:1"
               id="path220"
               inkscape:connector-curvature="0" />
            <g
               id="g222"
               transform="scale(10,10)">
              <text
                 transform="matrix(1,0,0,-1,379.277,374.644)"
                 style="font-variant:normal;font-weight:normal;font-size:19.20000076px;font-family:'Droid Sans Fallback';-inkscape-font-specification:DroidSans;writing-mode:lr-tb;fill:#800080;fill-opacity:1;fill-rule:nonzero;stroke:none"
                 id="text224">
                <tspan
                   x="0 4.9727998 16.032 27.340799 38.476624 49.785423"
                   y="0"
                   sodipodi:role="line"
                   id="tspan226">iPhone</tspan>
              </text>
            </g>
            <path
               d="m 2513.36,3306.52 c 0,-63.12 -51.17,-114.3 -114.3,-114.3 -63.12,0 -114.29,51.18 -114.29,114.3 0,63.09 51.17,114.26 114.29,114.26 63.13,0 114.3,-51.17 114.3,-114.26"
               style="fill:#008000;fill-opacity:1;fill-rule:nonzero;stroke:none"
               id="path228"
               inkscape:connector-curvature="0" />
            <path
               d="m 2513.36,3306.52 c 0,-63.12 -51.17,-114.29 -114.3,-114.29 -63.12,0 -114.29,51.17 -114.29,114.29 0,63.09 51.17,114.26 114.29,114.26 63.13,0 114.3,-51.17 114.3,-114.26 z"
               style="fill:none;stroke:#ffffff;stroke-width:4;stroke-linecap:butt;stroke-linejoin:miter;stroke-miterlimit:1;stroke-dasharray:none;stroke-opacity:1"
               id="path230"
               inkscape:connector-curvature="0" />
            <g
               id="g232"
               transform="scale(10,10)">
              <text
                 transform="matrix(1,0,0,-1,214.248,302.079)"
                 style="font-variant:normal;font-weight:normal;font-size:19.20000076px;font-family:'Droid Sans Fallback';-inkscape-font-specification:DroidSans;writing-mode:lr-tb;fill:#008000;fill-opacity:1;fill-rule:nonzero;stroke:none"
                 id="text234">
                <tspan
                   x="0 11.6736 22.924801 34.175999 39.1488"
                   y="0"
                   sodipodi:role="line"
                   id="tspan236">Apple</tspan>
              </text>
            </g>
            <path
               d="M 770.699,2586.06 2290.7,3248.91"
               style="fill:none;stroke:#000000;stroke-width:8;stroke-linecap:butt;stroke-linejoin:miter;stroke-miterlimit:4;stroke-dasharray:none;stroke-opacity:1"
               id="path238"
               inkscape:connector-curvature="0" />
            <path
               d="m 2217.38,3216.91 -16.56,-42.11 89.88,74.1 -115.47,-15.43"
               style="fill:#000000;fill-opacity:1;fill-rule:evenodd;stroke:none"
               id="path240"
               inkscape:connector-curvature="0" />
            <path
               d="m 2217.38,3216.91 -16.56,-42.11 89.88,74.1 -115.47,-15.42 42.15,-16.57 z"
               style="fill:none;stroke:#000000;stroke-width:8;stroke-linecap:butt;stroke-linejoin:miter;stroke-miterlimit:4;stroke-dasharray:none;stroke-opacity:1"
               id="path242"
               inkscape:connector-curvature="0" />
            <g
               id="g244"
               transform="scale(10,10)">
              <text
                 transform="matrix(0.927349,0.374196,0.374196,-0.927349,133.007,287.37)"
                 style="font-variant:normal;font-weight:normal;font-size:11.19999313px;font-family:'Droid Sans Fallback';-inkscape-font-specification:DroidSans;writing-mode:lr-tb;fill:#000000;fill-opacity:1;fill-rule:nonzero;stroke:none"
                 id="text246">
                <tspan
                   x="0 6.7535958 12.667192 20.977587 23.889585 30.351982"
                   y="0"
                   sodipodi:role="line"
                   id="tspan248">CEO of</tspan>
              </text>
            </g>
            <path
               d="m 798.199,2563.2 c 0,-63.12 -51.168,-114.3 -114.289,-114.3 -63.129,0 -114.301,51.18 -114.301,114.3 0,63.09 51.172,114.26 114.301,114.26 63.121,0 114.289,-51.17 114.289,-114.26"
               style="fill:#104071;fill-opacity:1;fill-rule:nonzero;stroke:none"
               id="path250"
               inkscape:connector-curvature="0" />
            <path
               d="m 798.199,2563.2 c 0,-63.12 -51.168,-114.29 -114.289,-114.29 -63.129,0 -114.301,51.17 -114.301,114.29 0,63.09 51.172,114.26 114.301,114.26 63.121,0 114.289,-51.17 114.289,-114.26 z"
               style="fill:none;stroke:#ffffff;stroke-width:4;stroke-linecap:butt;stroke-linejoin:miter;stroke-miterlimit:1;stroke-dasharray:none;stroke-opacity:1"
               id="path252"
               inkscape:connector-curvature="0" />
            <g
               id="g254"
               transform="scale(10,10)">
              <text
                 transform="matrix(1,0,0,-1,-0.1875,227.747)"
                 style="font-variant:normal;font-weight:normal;font-size:19.20000076px;font-family:'Droid Sans Fallback';-inkscape-font-specification:DroidSans;writing-mode:lr-tb;fill:#104071;fill-opacity:1;fill-rule:nonzero;stroke:none"
                 id="text256">
                <tspan
                   x="0 9.9647999 14.9376 32.1408 43.276619 49.785419 61.094219 70.483017 75.475021 88.07032 93.215919 98.207916 109.78551 120.86392 131.94232"
                   y="0"
                   sodipodi:role="line"
                   id="tspan258">Timothy D. Cook</tspan>
              </text>
            </g>
            <path
               d="m 794.141,4049.53 c 0,-63.13 -51.172,-114.3 -114.301,-114.3 -63.078,0 -114.25,51.17 -114.25,114.3 0,63.12 51.172,114.3 114.25,114.3 63.129,0 114.301,-51.18 114.301,-114.3"
               style="fill:#008000;fill-opacity:1;fill-rule:nonzero;stroke:none"
               id="path260"
               inkscape:connector-curvature="0" />
            <path
               d="m 794.141,4049.53 c 0,-63.12 -51.172,-114.29 -114.301,-114.29 -63.078,0 -114.25,51.17 -114.25,114.29 0,63.13 51.172,114.3 114.25,114.3 63.129,0 114.301,-51.17 114.301,-114.3 z"
               style="fill:none;stroke:#ffffff;stroke-width:4;stroke-linecap:butt;stroke-linejoin:miter;stroke-miterlimit:1;stroke-dasharray:none;stroke-opacity:1"
               id="path262"
               inkscape:connector-curvature="0" />
            <g
               id="g264"
               transform="scale(10,10)">
              <text
                 transform="matrix(1,0,0,-1,30.9309,372.725)"
                 style="font-variant:normal;font-weight:normal;font-size:19.20000076px;font-family:'Droid Sans Fallback';-inkscape-font-specification:DroidSans;writing-mode:lr-tb;fill:#008000;fill-opacity:1;fill-rule:nonzero;stroke:none"
                 id="text266">
                <tspan
                   x="0 9.9647999 20.16 37.363201 46.0224 57.3312 68.697418"
                   y="0"
                   sodipodi:role="line"
                   id="tspan268">Samsung</tspan>
              </text>
            </g>
            <path
               d="M 753.09,3972.31 2289.49,3348.4"
               style="fill:none;stroke:#000000;stroke-width:8;stroke-linecap:butt;stroke-linejoin:miter;stroke-miterlimit:4;stroke-dasharray:none;stroke-opacity:1"
               id="path270"
               inkscape:connector-curvature="0" />
            <path
               d="m 827.23,3942.22 41.68,17.62 -115.82,12.46 91.75,-71.75"
               style="fill:#000000;fill-opacity:1;fill-rule:evenodd;stroke:none"
               id="path272"
               inkscape:connector-curvature="0" />
            <path
               d="m 827.227,3942.22 41.679,17.62 -115.816,12.46 91.75,-71.76 -17.613,41.68 z"
               style="fill:none;stroke:#000000;stroke-width:8;stroke-linecap:butt;stroke-linejoin:miter;stroke-miterlimit:4;stroke-dasharray:none;stroke-opacity:1"
               id="path274"
               inkscape:connector-curvature="0" />
            <path
               d="m 2215.35,3378.51 -41.68,-17.61 115.82,-12.5 -91.72,71.79"
               style="fill:#000000;fill-opacity:1;fill-rule:evenodd;stroke:none"
               id="path276"
               inkscape:connector-curvature="0" />
            <path
               d="m 2215.35,3378.52 -41.67,-17.62 115.81,-12.51 -91.72,71.81 17.58,-41.68 z"
               style="fill:none;stroke:#000000;stroke-width:8;stroke-linecap:butt;stroke-linejoin:miter;stroke-miterlimit:4;stroke-dasharray:none;stroke-opacity:1"
               id="path278"
               inkscape:connector-curvature="0" />
            <g
               id="g280"
               transform="scale(10,10)">
              <text
                 transform="matrix(0.929639,-0.368471,-0.368471,-0.929639,114.813,385.527)"
                 style="font-variant:normal;font-weight:normal;font-size:11.1999979px;font-family:'Droid Sans Fallback';-inkscape-font-specification:DroidSans;writing-mode:lr-tb;fill:#000000;fill-opacity:1;fill-rule:nonzero;stroke:none"
                 id="text282">
                <tspan
                   x="0 5.1855989 11.647997 21.683195 28.246393 34.238392 38.035191 40.969681 44.766479 51.228878 55.697678"
                   y="0"
                   sodipodi:role="line"
                   id="tspan284">competitors</tspan>
              </text>
            </g>
          </g>
        </g>
      </g>
    </g>
  </g>
</svg>
