<?xml version="1.0" encoding="UTF-8" standalone="no"?>
<svg xmlns="http://www.w3.org/2000/svg" xmlns:xlink="http://www.w3.org/1999/xlink" width="69.242058mm" height="93.07695mm" viewBox="0 0 69.242058 93.07695" version="1.1">
  <defs id="defs2">
    <marker style="overflow:visible" id="arrowhead" refX="0" refY="0" orient="auto">
      <path transform="scale(-0.6)" d="M 8.7185878,4.0337352 -2.2072895,0.01601326 8.7185884,-4.0017078 c -1.7454984,2.3720609 -1.7354408,5.6174519 -6e-7,8.035443 z" style="fill:#000000;stroke:#000000;stroke-width:0.625;stroke-linejoin:round;"/>
    </marker>
    <linearGradient id="leafGradient">
      <stop style="stop-color:#06ce09;" offset="0"/>
      <stop style="stop-color:#06ce09;" offset="0.828"/>
      <stop style="stop-color:#024a03;" offset="1"/>
    </linearGradient>
    <linearGradient id="logGradient">
      <stop style="stop-color:#7f0000;" offset="0"/>
      <stop style="stop-color:#000000;" offset="1"/>
    </linearGradient>
    <radialGradient xlink:href="#logGradient" id="t3LeftGradient" cx="124.13177" cy="78.526222" fx="124.13177" fy="78.526222" r="1.7540717" gradientTransform="matrix(0.32061755,-0.66016569,3.5693045,1.465159,-203.69872,44.936667)" gradientUnits="userSpaceOnUse"/>
    <radialGradient xlink:href="#logGradient" id="t3MiddleGradient" cx="118.27041" cy="79.710541" fx="118.27041" fy="79.710541" r="1.7540717" gradientTransform="matrix(1.1188588,-0.16461952,0.80722551,5.4864164,-78.402897,-337.97556)" gradientUnits="userSpaceOnUse"/>
    <radialGradient xlink:href="#logGradient" id="t3RightGradient" cx="117.99068" cy="78.717339" fx="117.99068" fy="78.717339" r="1.7540717" gradientTransform="matrix(0.50805099,0.6892161,-2.6504427,2.2362407,269.41224,-179.32228)" gradientUnits="userSpaceOnUse"/>
    <radialGradient xlink:href="#logGradient" id="t4Gradient" cx="135.54729" cy="80.299141" fx="135.54729" fy="80.299141" r="0.86055291" gradientTransform="matrix(1.5680578,0,0,16.311145,-76.998698,-1229.8678)" gradientUnits="userSpaceOnUse"/>
    <radialGradient xlink:href="#leafGradient" id="t5LeafGradient" cx="93.583672" cy="112.81905" fx="93.583672" fy="112.81905" r="7.9002461" gradientTransform="matrix(0.97865441,0,0,1.8826674,19.409668,-98.81035)" gradientUnits="userSpaceOnUse"/>
    <radialGradient xlink:href="#logGradient" id="t5LogGradient" cx="135.54729" cy="80.299141" fx="135.54729" fy="80.299141" r="0.86055291" gradientTransform="matrix(7.0648092,0,0,25.670893,-846.60634,-1929.2953)" gradientUnits="userSpaceOnUse"/>
  </defs>
  <style type="text/css">
  path.arrow {stroke:#000000;stroke-width:0.465;marker-end:url(#arrowhead);}
  .log {stroke:#000000;stroke-width:0.1;}
  ellipse.darkleaves {fill:#004040;}
  </style>
  <g id="layer1" transform="translate(-73.425491,-43.82368)">
    <path style="fill:#7c0000;" d="m 87.439623,73.662687 -2.890779,3.128492 v -1.068152 h -2.555917 v 0.98185 l -1.475362,-1.001488 -1.377177,0.583944 2.852539,2.049486 v 4.665348 h 2.555917 v -3.559988 l 3.902604,-5.373317 z"/>
    <path style="fill:#007c00;" d="m 79.396187,49.224384 a 2.355401,3.9935016 0 0 0 -2.355414,3.993852 2.355401,3.9935016 0 0 0 0.540536,2.545223 4.4045753,6.5903627 0 0 0 -0.738973,3.652721 4.4045753,6.5903627 0 0 0 0.342098,2.544184 5.219275,7.3776247 0 0 0 -3.758943,7.082698 5.219275,7.3776247 0 0 0 5.219319,7.377618 5.219275,7.3776247 0 0 0 2.866493,-1.212382 3.3415575,6.8345699 0 0 0 2.035535,1.414879 3.3415575,6.8345699 0 0 0 2.976044,-3.726973 3.7006244,6.6838472 0 0 0 2.161627,1.259112 3.7006244,6.6838472 0 0 0 3.70055,-6.683416 3.7006244,6.6838472 0 0 0 -1.462961,-5.323576 3.4765699,7.0159991 0 0 0 0.671277,-4.143387 3.4765699,7.0159991 0 0 0 -1.267108,-5.416517 2.9370628,2.6197235 0 0 0 0.105939,-0.695757 2.9370628,2.6197235 0 0 0 -2.93729,-2.619991 2.9370628,2.6197235 0 0 0 -2.665471,1.52028 2.1133882,2.1450073 0 0 0 -1.342551,-0.488587 2.1133882,2.1450073 0 0 0 -1.938385,1.290266 2.355401,3.9935016 0 0 0 -2.152322,-2.370247 z"/>

    <rect style="fill:#ff7c40;" id="rect896" width="1.0694138" height="6.8728361" x="101.76768" y="75.32122"/>
    <path id="path898" style="fill:#00ff00;" d="m 103.23659,43.82368 a 1.5888136,2.453114 0 0 0 -0.84594,0.377238 h -1.58027 a 1.3774305,2.453114 0 0 0 -0.60254,-0.247528 1.3774305,2.453114 0 0 0 -1.377182,2.453079 1.3774305,2.453114 0 0 0 0.07028,0.774112 C 97.853003,48.0725 97.86896,52.614372 97.86896,60.6857 c 0,9.05451 1.203135,16.394856 2.68769,16.394864 0.33198,3e-6 0.64935,-0.369461 0.94258,-1.042829 a 1.9011736,2.6006755 0 0 0 0.39687,0.05788 1.9011736,2.6006755 0 0 0 0.7488,-0.210841 1.4418497,2.010561 0 0 0 1.34203,1.276927 1.4418497,2.010561 0 0 0 1.42007,-1.661914 0.87879348,14.331938 0 0 0 0.83613,-14.31489 0.87879348,14.331938 0 0 0 -0.50437,-12.965099 2.664837,2.3078956 0 0 0 0.0191,-0.274402 2.664837,2.3078956 0 0 0 -0.93327,-1.753899 1.5888136,2.453114 0 0 0 -1.58802,-2.367815 z"/>

    <path class="log" style="fill:url(#t3RightGradient);" d="m 121.87558,75.570128 0.7537,2.169524 -3.66317,2.521697 -0.20067,-1.897342 z"/>
    <path class="log" style="fill:url(#t3MiddleGradient);" d="m 116.72104,75.592801 1.78697,0.09198 1.37286,7.876437 -2.2363,0.04131 z"/>
    <path class="log" style="fill:url(#t3LeftGradient);" d="m 114.64139,76.904633 2.44906,0.571124 0.34904,2.06274 -2.10441,-1.334486 z"/>
    <path style="fill:#007f40;fill-opacity:1;stroke:none;stroke-width:0.341932" d="m 119.75393,49.887909 a 3.3605194,2.8006526 0 0 0 -2.57039,0.997358 3.5346563,3.3467894 0 0 0 -1.13584,-0.177769 3.5346563,3.3467894 0 0 0 -3.53467,3.346567 3.5346563,3.3467894 0 0 0 0.23099,1.190109 4.0096873,3.2333723 0 0 0 -0.293,1.212329 4.0096873,3.2333723 0 0 0 1.72702,2.657718 3.7120404,3.5909668 0 0 0 -1.22421,2.664952 3.7120404,3.5909668 0 0 0 0.42168,1.660882 2.9758703,3.0096256 0 0 0 -1.50947,2.618962 2.9758703,3.0096256 0 0 0 2.42155,2.956926 2.3966096,2.5093146 0 0 0 -0.71158,1.783352 2.3966096,2.5093146 0 0 0 0.14056,0.84491 2.6145447,2.2241872 0 0 0 -1.65623,2.069642 2.6145447,2.2241872 0 0 0 1.00201,1.75028 1.5213229,2.0698053 0 0 0 -0.447,1.465027 1.5213229,2.0698053 0 0 0 0.19172,1.006139 2.7365613,1.9721665 0 0 0 -1.82573,1.859835 2.7365613,1.9721665 0 0 0 2.73678,1.971974 2.7365613,1.9721665 0 0 0 2.73627,-1.971974 2.7365613,1.9721665 0 0 0 -1.11931,-1.591117 1.5213229,2.0698053 0 0 0 0.32297,-1.274857 1.5213229,2.0698053 0 0 0 -0.008,-0.20619 1.3685487,1.5019026 0 0 0 1.07074,-1.130163 2.2814784,2.5137203 0 0 0 0.99167,0.250114 2.2814784,2.5137203 0 0 0 0.7953,-0.158131 3.5459664,2.5192 0 0 0 3.04426,1.228349 3.5459664,2.5192 0 0 0 0.48059,-0.02326 2.0154385,2.3790349 0 0 0 -0.0579,0.564306 2.0154385,2.3790349 0 0 0 2.01538,2.379184 2.0154385,2.3790349 0 0 0 2.0159,-2.379184 2.0154385,2.3790349 0 0 0 -1.14877,-2.147154 3.5459664,2.5192 0 0 0 0.24081,-0.913122 3.5459664,2.5192 0 0 0 -2.68407,-2.443263 2.4879376,3.0254604 0 0 0 0.24908,-1.318782 2.4879376,3.0254604 0 0 0 -0.42375,-1.689303 2.9076589,1.9190367 0 0 0 0.71882,0.05943 2.9076589,1.9190367 0 0 0 2.90783,-1.918745 2.9076589,1.9190367 0 0 0 -2.45049,-1.894975 2.8266546,3.3536186 0 0 0 0.10025,-0.633037 2.8347466,4.792355 0 0 0 2.2686,-4.695838 2.8347466,4.792355 0 0 0 -2.17042,-4.65863 2.3054322,4.3978295 0 0 0 0.009,-0.382405 2.3054322,4.3978295 0 0 0 -1.53427,-4.143933 3.3605194,2.8006526 0 0 0 -2.33475,-0.786516 z"/>
    <ellipse class="darkleaves" cx="118.70899" cy="56.504414" rx="3.595284" ry="3.0224411"/>
    <ellipse class="darkleaves" cx="119.70549" cy="68.3088" rx="2.6620727" ry="4.2161508"/>
    <ellipse class="darkleaves" cx="122.38242" cy="61.405411" rx="1.6303856" ry="1.8507112"/>
    <ellipse class="darkleaves" cx="116.31957" cy="63.129795" rx="1.7139215" ry="1.9220634"/>
    <ellipse class="darkleaves" cx="115.79112" cy="69.12191" rx="0.91620117" ry="2.5509789"/>
    <ellipse class="darkleaves" cx="115.4552" cy="74.137085" rx="1.2810624" ry="0.85507047"/>
    <ellipse class="darkleaves" cx="123.11541" cy="75.825737" rx="1.476827" ry="1.6872009"/>

    <rect class="log" style="fill:url(#t4Gradient)" id="rect896-2" width="1.6211058" height="6.6709638" x="134.73672" y="76.567696"/>
    <path id="rect1161" style="fill:#007f40;stroke:#cac340;stroke-width:0.2;" d="m 135.05115,45.456283 5.98447,21.901215 -2.08466,-3.211278 -3.25306,-4.597168 3.25306,4.597168 3.0537,8.790316 -2.46951,-1.020089 -2.89918,-5.549458 4.93921,10.02771 -4.63007,-3.653909 5.63913,8.492065 -6.87985,-4.537707 -6.25264,3.529446 3.03612,-4.23637 2.14059,-1.897558 -5.50481,3.885642 2.17125,-6.694129 1.77626,-3.104609 -4.0461,5.468976 2.2921,-9.499876 2.25156,-3.960975 -4.39633,7.508493 z"/>

    <rect class="log" style="fill:url(#t5LogGradient);" width="3.5493524" height="9.5022869" x="109.23469" y="127.30428"/>
    <ellipse style="fill:url(#t5LeafGradient);" id="path1164" cx="110.99574" cy="113.5904" rx="7.9002461" ry="14.356041"/>

    <path class="arrow" d="m 90.788396,85.56092 9.553154,12.610407"/>
    <path class="arrow" d="m 105.07156,85.95538 2.97725,11.183499"/>
    <path class="arrow" d="m 117.74327,86.76905 -2.2635,11.164789"/>
    <path class="arrow" d="M 130.41284,86.501841 122.4334,99.001695"/>
  </g>
</svg>